<svg width="21" height="21" viewBox="0 0 21 21" fill="none" xmlns="http://www.w3.org/2000/svg">
<g clip-path="url(#clip0_149_517)">
<path d="M5.44387 17.5937C5.01513 17.5937 4.6481 17.4411 4.34277 17.1358C4.03745 16.8304 3.8848 16.4634 3.8848 16.0347V7.69356C3.8848 7.26176 4.03745 6.89211 4.34277 6.58462C4.6481 6.27712 5.01513 6.12337 5.44387 6.12337H6.59904V4.47878C6.59904 3.39722 6.97406 2.47765 7.72411 1.72008C8.47416 0.96251 9.38618 0.583725 10.4602 0.583725C11.5342 0.583725 12.4464 0.96251 13.1968 1.72008C13.9473 2.47765 14.3225 3.39722 14.3225 4.47878V6.12337H15.4777C15.9095 6.12337 16.2791 6.27712 16.5866 6.58462C16.8941 6.89211 17.0479 7.26176 17.0479 7.69356V16.0347C17.0479 16.4634 16.8941 16.8304 16.5866 17.1358C16.2791 17.4411 15.9095 17.5937 15.4777 17.5937H5.44387ZM5.44387 16.0347H15.4777V7.69356H5.44387V16.0347ZM10.4641 13.3795C10.8817 13.3795 11.2382 13.235 11.5334 12.9459C11.8286 12.6569 11.9762 12.3094 11.9762 11.9035C11.9762 11.5099 11.8275 11.1523 11.5301 10.8309C11.2327 10.5094 10.8751 10.3487 10.4575 10.3487C10.0398 10.3487 9.68338 10.5094 9.38816 10.8309C9.09295 11.1523 8.94535 11.5132 8.94535 11.9133C8.94535 12.3135 9.09405 12.6579 9.39147 12.9466C9.68889 13.2352 10.0464 13.3795 10.4641 13.3795ZM8.15813 6.12337H12.7634V4.48134C12.7634 3.82579 12.5417 3.274 12.0984 2.82597C11.655 2.37794 11.1108 2.15392 10.4657 2.15392C9.82065 2.15392 9.27479 2.37794 8.82813 2.82597C8.38146 3.274 8.15813 3.82579 8.15813 4.48134V6.12337Z" fill="white"/>
</g>
<defs>
<clipPath id="clip0_149_517">
<rect width="20" height="20" fill="white" transform="translate(0.459991 0.488022)"/>
</clipPath>
</defs>
</svg>
