<svg width="21" height="21" viewBox="0 0 21 21" fill="none" xmlns="http://www.w3.org/2000/svg">
<g clip-path="url(#clip0_149_533)">
<path d="M3.28714 15.5804V13.9183H5.14314V7.87303C5.14314 6.63504 5.50259 5.52407 6.22149 4.54009C6.9404 3.55612 7.89767 2.93267 9.09333 2.66974V2.12934C9.09333 1.75102 9.22737 1.43709 9.49545 1.18753C9.76355 0.937989 10.0851 0.813217 10.4602 0.813217C10.8352 0.813217 11.1568 0.937989 11.4249 1.18753C11.693 1.43709 11.827 1.75102 11.827 2.12934V2.66974C13.0306 2.93267 13.9952 3.55416 14.7211 4.5342C15.4469 5.51424 15.8098 6.62718 15.8098 7.87303V13.9183H17.645V15.5804H3.28714ZM10.4661 18.1158C9.99455 18.1158 9.5822 17.9434 9.22904 17.5985C8.87588 17.2537 8.69931 16.8392 8.69931 16.3549H12.2328C12.2328 16.8446 12.0589 17.2606 11.7111 17.6027C11.3633 17.9447 10.9483 18.1158 10.4661 18.1158ZM6.79351 13.9183H14.1477V7.87303C14.1477 6.84525 13.7935 5.97025 13.0852 5.24803C12.3768 4.52581 11.5088 4.1647 10.481 4.1647C9.45324 4.1647 8.58171 4.52581 7.86643 5.24803C7.15115 5.97025 6.79351 6.84525 6.79351 7.87303V13.9183Z" fill="white"/>
</g>
<defs>
<clipPath id="clip0_149_533">
<rect width="20" height="20" fill="white" transform="translate(0.459991 0.488022)"/>
</clipPath>
</defs>
</svg>
